<?xml version="1.0" encoding="UTF-8" standalone="no"?>
<svg width="56px" height="50px" viewBox="0 0 56 50" version="1.1" xmlns="http://www.w3.org/2000/svg" xmlns:xlink="http://www.w3.org/1999/xlink">
    <!-- Generator: Sketch 40.3 (33839) - http://www.bohemiancoding.com/sketch -->
    <title>heart</title>
    <desc>Created with Sketch.</desc>
    <defs>
        <polygon id="path-1" points="27.9732353 50 55.9460784 50 55.9460784 0 27.9732353 0 0.000392156862 0 0.000392156862 50"></polygon>
    </defs>
    <g id="Web-Design" stroke="none" stroke-width="1" fill="none" fill-rule="evenodd">
        <g id="Who-We-Are-1024" transform="translate(-814.000000, -2657.000000)">
            <g id="Values" transform="translate(0.000000, 2607.000000)">
                <g id="heart" transform="translate(814.000000, 50.000000)">
                    <mask id="mask-2" fill="white">
                        <use xlink:href="#path-1"></use>
                    </mask>
                    <g id="Clip-2"></g>
                    <path d="M44.0562745,29.8539216 L27.9729412,45.8519608 L11.8896078,29.8539216 L6.81411765,24.8009804 C6.07098039,24.0803922 5.44058824,23.2803922 4.90235294,22.4294118 L14.8837255,22.4294118 C15.5121569,22.4294118 16.0562745,22.0039216 16.2101961,21.3941176 L16.7121569,19.3803922 L19.1621569,29.7911765 C19.3092157,30.4117647 19.8562745,30.8441176 20.5013725,30.8441176 C21.1435294,30.8411765 21.6896078,30.4 21.8268627,29.7745098 L23.4592157,22.4294118 L33.5827451,22.4294118 C34.2111765,22.4294118 34.7562745,22.0039216 34.9092157,21.3941176 L35.4131373,19.3803922 L37.8621569,29.7901961 C38.0062745,30.4107843 38.5543137,30.8441176 39.2003922,30.8441176 C39.8405882,30.8411765 40.3866667,30.4009804 40.5258824,29.7745098 L42.1592157,22.4294118 L51.0435294,22.4294118 C50.5062745,23.2803922 49.874902,24.0803922 49.1317647,24.8009804 L44.0562745,29.8539216 Z M15.665098,2.94117647 C19.5856863,2.94117647 23.2298039,4.7127451 25.6631373,7.80098039 L27.9729412,10.7323529 L30.2827451,7.80098039 C32.7170588,4.7127451 36.3611765,2.94117647 40.2807843,2.94117647 C47.2964706,2.94117647 53.0052941,8.64901961 53.0052941,15.6656863 C53.0052941,17.0598039 52.7729412,18.4137255 52.3454902,19.6960784 L41.0621569,19.6960784 C40.4268627,19.6960784 39.8660784,20.1460784 39.7278431,20.7666667 L39.1543137,23.3490196 L36.7817647,13.2705882 C36.6376471,12.6539216 36.0935294,12.2205882 35.4523529,12.2166667 C34.8239216,12.2166667 34.2788235,12.6431373 34.1258824,13.2519608 L32.515098,19.6960784 L22.3631373,19.6960784 C21.7278431,19.6960784 21.1660784,20.1460784 21.0288235,20.7666667 L20.4552941,23.3490196 L18.0837255,13.2705882 C17.9386275,12.6539216 17.3954902,12.2205882 16.7523529,12.2166667 C16.124902,12.2166667 15.5798039,12.6431373 15.4268627,13.2519608 L13.815098,19.6960784 L3.60039216,19.6960784 C3.17294118,18.4137255 2.94156863,17.0598039 2.94156863,15.6656863 C2.94156863,8.64901961 8.64941176,2.94117647 15.665098,2.94117647 L15.665098,2.94117647 Z M55.9464706,15.6656863 C55.9464706,7.01372549 48.9327451,0 40.2807843,0 C35.2866667,0 30.8415686,2.34019608 27.9729412,5.98039216 C25.1043137,2.34019608 20.6592157,0 15.665098,0 C7.01313725,0 0.000392156862,7.01372549 0.000392156862,15.6656863 C0.000392156862,20.0803922 1.82882353,24.0656863 4.76705882,26.9127451 L4.76215686,26.9127451 L27.9729412,50 L51.1837255,26.9127451 L51.1788235,26.9127451 C54.1170588,24.0656863 55.9464706,20.0803922 55.9464706,15.6656863 L55.9464706,15.6656863 Z" id="Fill-1" fill="#00143F" mask="url(#mask-2)"></path>
                </g>
            </g>
        </g>
    </g>
</svg>