<?xml version="1.0" encoding="UTF-8" standalone="no"?>
<svg width="30px" height="25px" viewBox="0 0 30 25" version="1.1" xmlns="http://www.w3.org/2000/svg" xmlns:xlink="http://www.w3.org/1999/xlink">
    <!-- Generator: Sketch 40.3 (33839) - http://www.bohemiancoding.com/sketch -->
    <title>Twitter</title>
    <desc>Created with Sketch.</desc>
    <defs></defs>
    <g id="Web-Design" stroke="none" stroke-width="1" fill="none" fill-rule="evenodd">
        <g id="Desktop-1024" transform="translate(-30.000000, -2484.000000)" fill="#FFFFFF">
            <g id="All">
                <g id="Contact-Us" transform="translate(0.000000, 2365.000000)">
                    <path d="M59.994084,121.88186 C58.895168,122.368997 57.7047975,122.706189 56.4602861,122.85394 C57.7325997,122.092514 58.7027479,120.886375 59.1695311,119.447639 C57.9784291,120.152744 56.6614858,120.666213 55.2508932,120.93977 C54.1358812,119.749723 52.5328685,119 50.7659696,119 C47.3704508,119 44.6151127,121.755322 44.6151127,125.149919 C44.6151127,125.634862 44.670717,126.100787 44.7716826,126.55062 C39.6538946,126.293154 35.1243413,123.849425 32.0851288,120.12495 C31.55323,121.031199 31.250333,122.092514 31.250333,123.219658 C31.250333,125.351796 32.3404694,127.237439 33.9873802,128.333863 C32.9799186,128.308262 32.0383041,128.024465 31.2064349,127.565123 L31.2064349,127.640461 C31.2064349,130.622528 33.3289086,133.110144 36.1391192,133.679933 C35.6255114,133.81598 35.0775166,133.888392 34.5200106,133.888392 C34.1256593,133.888392 33.7415508,133.853283 33.3574423,133.78014 C34.1446818,136.223869 36.4127508,137.997603 39.1058999,138.053192 C36.9987906,139.700388 34.3436865,140.679781 31.4617756,140.679781 C30.9671902,140.679781 30.4821161,140.651987 29.997042,140.59786 C32.7245779,142.345262 35.9562105,143.359765 39.4336724,143.359765 C50.7476787,143.359765 56.935849,133.988599 56.935849,125.864533 L56.9175581,125.067998 C58.1262194,124.199051 59.1695311,123.11872 59.994084,121.88186" id="Twitter"></path>
                </g>
            </g>
        </g>
    </g>
</svg>