<?xml version="1.0" encoding="UTF-8" standalone="no"?>
<svg width="20px" height="20px" viewBox="0 0 20 20" version="1.1" xmlns="http://www.w3.org/2000/svg" xmlns:xlink="http://www.w3.org/1999/xlink">
    <!-- Generator: Sketch 40.3 (33839) - http://www.bohemiancoding.com/sketch -->
    <title>corner x</title>
    <desc>Created with Sketch.</desc>
    <defs>
        <polygon id="path-1" points="0 20 20 20 20 0 0 0"></polygon>
    </defs>
    <g id="Web-Design" stroke="none" stroke-width="1" fill="none" fill-rule="evenodd">
        <g id="Mobile-Portrait---About" transform="translate(-280.000000, -24.000000)">
            <g id="Mobile-Nav">
                <g id="corner-x" transform="translate(280.000000, 24.000000)">
                    <mask id="mask-2" fill="white">
                        <use xlink:href="#path-1"></use>
                    </mask>
                    <g id="Clip-2"></g>
                    <path d="M8.659,10 L0.277857143,1.61885714 C-0.0927142857,1.24828571 -0.0927142857,0.648 0.277857143,0.277714286 C0.648142857,-0.0925714286 1.24842857,-0.0925714286 1.61871429,0.277714286 L10.0001429,8.65885714 L18.3812857,0.277714286 C18.7515714,-0.0925714286 19.3518571,-0.0925714286 19.7221429,0.277714286 C20.0927143,0.648 20.0927143,1.24828571 19.7221429,1.61885714 L11.341,10 L19.7221429,18.3811429 C20.0927143,18.7517143 20.0927143,19.352 19.7221429,19.7222857 C19.3518571,20.0925714 18.7515714,20.0925714 18.3812857,19.7222857 L10.0001429,11.3411429 L1.61871429,19.7222857 C1.24842857,20.0925714 0.648142857,20.0925714 0.277857143,19.7222857 C-0.0927142857,19.352 -0.0927142857,18.7517143 0.277857143,18.3811429 L8.659,10 Z" id="Fill-1" fill="#FFFFFF" mask="url(#mask-2)"></path>
                </g>
            </g>
        </g>
    </g>
</svg>