<?xml version="1.0" encoding="UTF-8" standalone="no"?>
<svg width="50px" height="50px" viewBox="0 0 50 50" version="1.1" xmlns="http://www.w3.org/2000/svg" xmlns:xlink="http://www.w3.org/1999/xlink">
    <!-- Generator: Sketch 40.3 (33839) - http://www.bohemiancoding.com/sketch -->
    <title>firstaid</title>
    <desc>Created with Sketch.</desc>
    <defs></defs>
    <g id="Web-Design" stroke="none" stroke-width="1" fill="none" fill-rule="evenodd">
        <g id="Who-We-Are-1024" transform="translate(-617.000000, -2657.000000)" fill="#00143F">
            <g id="Values" transform="translate(0.000000, 2607.000000)">
                <g id="firstaid" transform="translate(617.000000, 50.000000)">
                    <path d="M47,45 C47,46.1 46.1,47 45,47 L5,47 C3.9,47 3,46.1 3,45 L3,5 C3,3.9 3.9,3 5,3 L45,3 C46.1,3 47,3.9 47,5 L47,45 Z M46,0 L4,0 C1.8,0 0,1.8 0,4 L0,46 C0,48.2 1.8,50 4,50 L46,50 C48.2,50 50,48.2 50,46 L50,4 C50,1.8 48.2,0 46,0 L46,0 Z" id="Fill-1"></path>
                    <path d="M25,39.5 C17.005,39.5 10.5,32.995 10.5,25 C10.5,17.005 17.005,10.5 25,10.5 C32.995,10.5 39.5,17.005 39.5,25 C39.5,32.995 32.995,39.5 25,39.5 M25,7.5 C15.335,7.5 7.5,15.335 7.5,25 C7.5,34.665 15.335,42.5 25,42.5 C34.665,42.5 42.5,34.665 42.5,25 C42.5,15.335 34.665,7.5 25,7.5" id="Fill-3"></path>
                    <polygon id="Fill-5" points="26.5 16 23.5 16 23.5 23.5 16 23.5 16 26.5 23.5 26.5 23.5 34 26.5 34 26.5 26.5 34 26.5 34 23.5 26.5 23.5"></polygon>
                </g>
            </g>
        </g>
    </g>
</svg>