<?xml version="1.0" encoding="UTF-8" standalone="no"?>
<svg width="55px" height="50px" viewBox="0 0 55 50" version="1.1" xmlns="http://www.w3.org/2000/svg" xmlns:xlink="http://www.w3.org/1999/xlink">
    <!-- Generator: Sketch 40.3 (33839) - http://www.bohemiancoding.com/sketch -->
    <title>stethoscope</title>
    <desc>Created with Sketch.</desc>
    <defs></defs>
    <g id="Web-Design" stroke="none" stroke-width="1" fill="none" fill-rule="evenodd">
        <g id="Who-We-Are-1024" transform="translate(-422.000000, -2657.000000)" fill="#00143F">
            <g id="Values" transform="translate(0.000000, 2607.000000)">
                <g id="stethoscope" transform="translate(422.000000, 50.000000)">
                    <path d="M53.3269678,1.24394737e-15 L48.9467866,1.24394737e-15 C48.0429397,1.24394737e-15 47.2781461,0.770308123 47.2781461,1.68067227 C47.2781461,2.59103641 48.0429397,3.36134454 48.9467866,3.36134454 L51.6583273,3.36134454 L51.6583273,10.0140056 C51.6583273,16.1064426 46.7219326,21.0784314 40.673111,21.0784314 C34.6242894,21.0784314 29.6878947,16.1064426 29.6878947,10.0140056 L29.6878947,3.36134454 L32.3994354,3.36134454 C33.3032823,3.36134454 34.0680759,2.59103641 34.0680759,1.68067227 C34.0680759,0.770308123 33.3032823,0 32.3994354,0 L28.0192543,0 C27.1154073,0 26.3506138,0.770308123 26.3506138,1.68067227 L26.3506138,10.0140056 C26.3506138,17.4369748 31.9127486,23.5294118 39.0044706,24.3697479 L39.0044706,31.512605 C39.0044706,39.7759104 32.3299088,46.5686275 24.0562332,46.5686275 C16.3387711,46.5686275 9.94231602,40.6162465 9.17752248,32.9831933 C12.4452767,32.2128852 14.8787107,29.2016807 14.8787107,25.7002801 C14.8787107,21.5686275 11.5414298,18.2072829 7.43935535,18.2072829 C3.3372809,18.2072829 0,21.5686275 0,25.7002801 C0,29.2717087 2.50296068,32.2829132 5.84024158,32.9831933 C6.60503512,42.5070028 14.4615506,50 24.0562332,50 C34.1376026,50 42.3417515,41.7366947 42.3417515,31.5826331 L42.3417515,24.3697479 C49.4334734,23.5294118 54.9956082,17.4369748 54.9956082,10.0140056 L54.9956082,1.68067227 C55.0651349,0.770308123 54.3003414,1.24394737e-15 53.3269678,1.24394737e-15 L53.3269678,1.24394737e-15 Z M3.40680759,25.7703081 C3.40680759,23.5294118 5.21450141,21.6386555 7.50888203,21.6386555 C9.73373597,21.6386555 11.6109565,23.4593838 11.6109565,25.7703081 C11.6109565,28.0112045 9.80326265,29.9019608 7.50888203,29.9019608 C5.21450141,29.8319328 3.40680759,28.0112045 3.40680759,25.7703081 L3.40680759,25.7703081 Z" id="Shape"></path>
                    <ellipse id="Oval" cx="7.5" cy="25.5035733" rx="1.5" ry="1.50357333"></ellipse>
                </g>
            </g>
        </g>
    </g>
</svg>