<?xml version="1.0" encoding="UTF-8" standalone="no"?>
<svg width="46px" height="57px" viewBox="0 0 46 57" version="1.1" xmlns="http://www.w3.org/2000/svg" xmlns:xlink="http://www.w3.org/1999/xlink">
    <!-- Generator: Sketch 40.3 (33839) - http://www.bohemiancoding.com/sketch -->
    <title>simple globe</title>
    <desc>Created with Sketch.</desc>
    <defs></defs>
    <g id="Web-Design" stroke="none" stroke-width="1" fill="none" fill-rule="evenodd">
        <g id="Who-We-Are-1024" transform="translate(-227.000000, -2651.000000)" fill="#00143F">
            <g id="Values" transform="translate(0.000000, 2607.000000)">
                <g id="simple-globe" transform="translate(227.000000, 44.000000)">
                    <path d="M4.35896,17.581764 C6.04946,17.846244 8.89571,17.669544 11.83166,15.112524 C13.25421,13.790124 14.85616,14.054604 15.65656,14.231304 C16.90201,14.583564 17.70241,15.377004 17.88066,15.994884 C18.85931,19.609824 17.25736,20.844444 15.21151,22.432464 C13.43246,23.754864 10.85301,25.870704 12.63206,29.574564 C13.61071,31.514844 13.87751,32.926164 13.52216,33.807384 C13.16566,34.513044 12.27671,35.218704 10.58621,35.835444 C6.31626,33.013944 3.55856,28.164384 3.55856,22.696944 C3.55856,20.844444 3.82536,19.168644 4.35896,17.581764 M19.57116,6.734664 C22.50596,6.734664 25.17511,7.529244 27.57746,8.851644 C25.88696,9.909564 24.90831,11.585364 24.90831,13.790124 C24.90831,16.876104 26.24231,19.433124 27.39921,21.462324 C28.02136,22.696944 28.82291,24.107124 28.64466,24.636084 C27.75456,27.017544 27.84426,29.310084 28.91146,30.898104 C29.44506,31.602624 30.33516,32.397204 31.84741,32.837244 C28.91146,36.276624 24.55181,38.481384 19.65971,38.481384 C17.96921,38.481384 16.27986,38.216904 14.67791,37.687944 C15.56801,37.070064 16.36841,36.188844 16.90201,35.130924 C17.70241,33.190644 17.34706,30.985884 15.92336,27.987684 C15.38976,27.017544 15.47831,26.753064 17.43561,25.165044 C19.65971,23.490384 22.95101,20.932224 21.35021,15.024744 C20.81661,13.084464 19.03641,11.497584 16.72376,10.791924 C14.14431,9.998484 11.56486,10.615224 9.51901,12.378804 C8.27356,13.525644 7.02811,13.877904 6.13801,13.965684 C8.89571,9.732864 13.87751,6.734664 19.57116,6.734664 M35.58261,22.608024 C35.58261,25.165044 34.96046,27.546504 33.89326,29.663484 C33.09286,29.663484 32.20276,29.486784 31.75771,28.868904 C31.31266,28.252164 31.40236,27.105324 31.84741,25.870704 C32.64781,23.842644 31.58061,21.814584 30.42371,19.786524 C29.44506,18.022944 28.37786,15.994884 28.37786,13.790124 C28.37786,12.731064 28.82291,12.114324 29.71186,11.673144 C30.06721,11.497584 30.33516,11.408664 30.69051,11.320884 C33.71501,14.231304 35.58261,18.198504 35.58261,22.608024 M19.57116,42.008544 C30.33516,42.008544 39.14186,33.278424 39.14186,22.608024 C39.14186,11.937624 30.33516,3.207504 19.57116,3.207504 C8.80716,3.207504 0.000459999999,11.937624 0.000459999999,22.608024 C0.000459999999,33.278424 8.80716,42.008544 19.57116,42.008544" id="Fill-1"></path>
                    <g id="Group-5">
                        <path d="M45.36842,22.608252 C45.36842,13.260252 40.20837,4.706832 32.02497,0.209532 C31.13487,-0.231648 30.06767,0.032832 29.62262,0.915192 C29.17757,1.796412 29.44552,2.855472 30.33447,3.295512 C37.45067,7.176072 41.89887,14.583792 41.89887,22.608252 C41.89887,34.777752 31.93527,44.654712 19.66017,44.654712 C13.78827,44.654712 8.18432,42.361032 4.00292,38.304912 C3.29107,37.599252 2.13532,37.599252 1.51202,38.304912 C0.80017,39.010572 0.80017,40.157412 1.51202,40.774152 C5.96022,45.094752 11.74242,47.652912 17.87997,48.092952 L17.87997,53.472612 L12.54282,53.472612 C11.56417,53.472612 10.76377,54.266052 10.76377,55.236192 C10.76377,56.206332 11.56417,56.999772 12.54282,56.999772 L26.86492,56.999772 C27.84357,56.999772 28.64397,56.206332 28.64397,55.236192 C28.64397,54.266052 27.84357,53.472612 26.86492,53.472612 L21.43922,53.472612 L21.43922,48.092952 C34.78267,47.211732 45.36842,36.189072 45.36842,22.608252" id="Fill-3"></path>
                    </g>
                </g>
            </g>
        </g>
    </g>
</svg>