<svg id="Layer_1" data-name="Layer 1" xmlns="http://www.w3.org/2000/svg" viewBox="0 0 45 40.17"><defs><style>.cls-1{fill:#00c0f3;}.cls-1,.cls-2{fill-rule:evenodd;}.cls-2{fill:#0089cf;}</style></defs><title>logomarkArtboard 1</title><path class="cls-1" d="M31.9,13C30.85,10.18,31.37,6.53,34.48,3,30.21,7.13,26.3,6.49,22.91,4.42l.77-.77h0a12.52,12.52,0,0,1,17.67,0h0a12.52,12.52,0,0,1,0,17.67h0L38.17,24.5,36.4,26.27a9.21,9.21,0,0,0,.09-6.4,10.31,10.31,0,0,0-2.18-3.62A12.33,12.33,0,0,1,31.9,13Z"/><path class="cls-2" d="M3.65,3.65h0A12.46,12.46,0,0,1,12.48,0a11.81,11.81,0,0,1,10.2,5.7c2,3.45,1.18,7.11-1.7,10.77,9.33-8,20.49,4.74,12.43,12.79L24.5,38.17l-2,2-2-2L6.83,24.5,3.65,21.32h0a12.52,12.52,0,0,1,0-17.67Z"/></svg>